<?xml version="1.0" standalone="no"?>
<!DOCTYPE svg PUBLIC "-//W3C//DTD SVG 20010904//EN"
 "http://www.w3.org/TR/2001/REC-SVG-20010904/DTD/svg10.dtd">
<svg version="1.0" xmlns="http://www.w3.org/2000/svg"
 width="1065.000000pt" height="1280.000000pt" viewBox="0 0 1065.000000 1280.000000"
 preserveAspectRatio="xMidYMid meet">
<metadata>
Created by potrace 1.15, written by Peter Selinger 2001-2017
</metadata>
<g transform="translate(0.000000,1280.000000) scale(0.100000,-0.100000)"
fill="#000000" stroke="none">
<path d="M5216 12748 c-8 -29 -27 -98 -41 -153 -15 -55 -62 -224 -105 -375
-43 -151 -93 -331 -110 -400 -32 -125 -136 -389 -191 -486 -52 -92 -102 -138
-227 -209 -133 -77 -147 -87 -219 -157 -90 -87 -147 -195 -180 -341 -13 -60
-16 -139 -17 -463 -1 -435 1 -419 -70 -431 -51 -8 -105 -58 -107 -100 -2 -48
2 -65 36 -163 18 -53 40 -134 50 -180 26 -134 61 -265 114 -437 78 -249 80
-270 72 -653 -3 -128 0 -199 9 -230 14 -51 67 -130 87 -130 46 0 68 195 59
520 -3 135 -9 279 -12 320 l-6 75 25 -25 c28 -28 162 -332 225 -512 81 -232
94 -397 38 -509 -47 -94 -92 -130 -216 -175 -116 -42 -311 -130 -657 -298
-404 -195 -583 -273 -780 -337 -246 -80 -244 -79 -294 -129 -121 -121 -186
-354 -234 -840 -8 -85 -22 -211 -30 -280 -8 -69 -19 -180 -25 -248 -6 -70 -27
-200 -50 -300 -39 -175 -65 -360 -94 -662 -63 -649 -44 -834 101 -1016 68 -84
113 -176 173 -349 28 -82 72 -190 97 -240 26 -49 60 -116 76 -147 54 -105 49
-194 -14 -263 -47 -51 -113 -81 -217 -100 -84 -15 -253 -72 -462 -158 -127
-52 -187 -72 -439 -148 -58 -17 -211 -77 -340 -134 -294 -128 -350 -146 -586
-193 -175 -35 -196 -41 -250 -78 -78 -51 -242 -214 -290 -286 -29 -44 -39 -71
-45 -126 -5 -38 -18 -114 -29 -168 -66 -329 -49 -537 54 -652 72 -79 97 -87
482 -132 673 -80 1465 -150 2138 -189 765 -45 1126 -55 1995 -55 781 0 999 5
1625 35 1379 66 2790 237 4019 489 107 22 198 40 200 40 9 0 46 78 68 140 40
114 32 402 -16 593 -59 233 -197 397 -432 516 -147 73 -285 116 -624 192 -124
28 -271 66 -327 85 -129 43 -189 57 -388 89 -276 44 -369 70 -488 132 -165 87
-271 250 -331 512 -19 81 -6 155 54 321 140 385 145 406 144 700 0 241 -9 355
-75 925 -101 879 -205 1652 -239 1773 -63 226 -218 434 -411 555 -140 87 -240
119 -635 202 -392 83 -697 175 -773 233 -151 115 -215 337 -164 569 17 77 97
253 119 260 8 3 14 -40 19 -134 8 -156 17 -224 41 -301 29 -90 103 -147 117
-89 14 55 27 210 37 432 6 132 18 296 26 365 15 118 30 185 138 593 48 182 76
326 76 394 0 60 -28 87 -81 80 -37 -5 -39 -4 -45 30 -4 20 -3 144 2 277 13
359 11 529 -10 605 -56 206 -231 408 -453 521 -206 105 -270 214 -369 630 -89
373 -165 656 -223 823 -16 45 -36 108 -45 139 -9 31 -21 60 -26 63 -5 3 -16
-18 -24 -47z m-1634 -7460 c64 -112 109 -210 153 -333 24 -66 80 -212 125
-325 117 -293 134 -359 134 -545 0 -172 -11 -254 -90 -660 -70 -357 -100 -483
-124 -523 -23 -38 -32 -39 -60 -9 -34 35 -404 615 -443 692 -64 128 -68 149
-52 261 8 55 32 187 55 294 23 107 79 382 126 610 102 504 124 600 133 600 4
0 23 -28 43 -62z"/>
</g>
</svg>
